<?xml version="1.0" encoding="UTF-8"?>
<svg id="Layer_2" data-name="Layer 2" xmlns="http://www.w3.org/2000/svg" viewBox="0 0 558.43 152.75">
  <defs>
    <style>
      .cls-1 {
        fill: #8da3d4;
      }
    </style>
  </defs>
  <g id="Layer_1-2" data-name="Layer 1">
    <g>
      <g>
        <path class="cls-1" d="M217.21,134.12l-7.67,12.17h-2.06V33.23c0-11.04-2.81-12.92-7.49-14.98v-2.62l24.71-10.86,1.87,1.5v56.16c9.36-5.99,20.4-11.04,31.07-11.04,26.58,0,42.68,21.9,42.68,45.11,0,28.64-19.65,51.48-50.73,51.48-13.48,0-25.46-5.99-32.38-13.85ZM256.89,144.04c19.84,0,25.08-16.29,25.08-33.32s-7.86-51.85-35.75-51.85c-6.93,0-13.48,2.62-19.65,6.55v47.92c0,14.6,16.1,30.7,30.32,30.7Z"/>
        <path class="cls-1" d="M311.73,143.67c6.18-2.06,7.49-7.67,7.49-21.15V33.23c0-11.04-2.81-12.92-7.49-14.98v-2.62l24.71-10.86,1.87,1.5v116.24c0,13.48,1.31,19.09,7.49,21.15v2.62h-34.07v-2.62Z"/>
        <path class="cls-1" d="M357.4,143.67c6.18-2.06,7.49-7.67,7.49-21.15v-43.05c0-11.04-2.81-12.92-7.49-14.98v-2.62l24.71-10.86,1.87,1.5v70.01c0,13.48,1.31,19.09,7.49,21.15v2.62h-34.07v-2.62ZM360.58,31.92c0-7.3,5.62-12.92,12.73-12.92,7.49,0,12.73,5.62,12.73,12.92s-5.62,12.73-12.73,12.73-12.73-5.62-12.73-12.73Z"/>
        <path class="cls-1" d="M404.75,138.99l-1.87-24.52,1.87-.37c8.05,17.97,21.53,30.51,38.19,30.7,11.6.19,19.09-7.49,19.09-16.1,0-11.98-9.55-16.66-25.83-21.71-19.65-5.99-31.82-11.42-31.82-28.26,0-14.23,11.04-27.33,36.5-27.33,10.67,0,22.09,2.06,28.45,4.68l.94,20.59-2.25.37c-6.36-13.29-17.97-23.02-31.63-23.02-11.79,0-19.47,6.18-19.47,14.23,0,10.48,9.36,14.98,26.2,20.59,14.98,5.05,31.45,9.55,31.45,28.64,0,14.23-8.99,30.32-36.13,30.32-13.66,0-26.58-4.12-33.69-8.8Z"/>
        <path class="cls-1" d="M488.61,138.99l-1.87-24.52,1.87-.37c8.05,17.97,21.53,30.51,38.19,30.7,11.61.19,19.09-7.49,19.09-16.1,0-11.98-9.55-16.66-25.83-21.71-19.66-5.99-31.82-11.42-31.82-28.26,0-14.23,11.04-27.33,36.5-27.33,10.67,0,22.09,2.06,28.45,4.68l.93,20.59-2.25.37c-6.36-13.29-17.97-23.02-31.63-23.02-11.79,0-19.47,6.18-19.47,14.23,0,10.48,9.36,14.98,26.21,20.59,14.97,5.05,31.45,9.55,31.45,28.64,0,14.23-8.99,30.32-36.13,30.32-13.66,0-26.58-4.12-33.69-8.8Z"/>
      </g>
      <g>
        <path class="cls-1" d="M38.19,0H0v42.75h.28c.98,8.2,4.6,16.14,10.89,22.43,14.92,14.92,39.1,14.92,54.01.02,7.46-7.46,11.19-17.24,11.19-27.01s-3.73-19.55-11.19-27.01C57.73,3.72,47.96,0,38.19,0Z"/>
        <path class="cls-1" d="M11.18,87.57c-6.29,6.29-9.91,14.23-10.89,22.43h-.28v42.75h38.19c9.77,0,19.54-3.72,27-11.17,7.46-7.46,11.19-17.24,11.19-27.01s-3.73-19.55-11.19-27.01c-14.9-14.9-39.08-14.9-54.01.02Z"/>
        <path class="cls-1" d="M114.56,76.37c9.77,0,19.54-3.73,26.99-11.18,14.92-14.92,14.92-39.1.02-54.01-6.3-6.3-14.25-9.93-22.45-10.91V0h-42.75v38.19h0c0,9.77,3.73,19.55,11.19,27.01,7.45,7.45,17.22,11.18,26.99,11.18-9.77,0-19.54,3.73-26.99,11.18-7.46,7.46-11.19,17.24-11.19,27.01h0v38.19h38.18s0,0,0,0h4.56v-.28c8.2-.98,16.15-4.61,22.45-10.91,14.9-14.9,14.9-39.08-.02-54.01-7.45-7.45-17.22-11.18-26.99-11.18Z"/>
      </g>
    </g>
  </g>
</svg>