<?xml version="1.0" encoding="UTF-8"?>
<svg id="Layer_2" data-name="Layer 2" xmlns="http://www.w3.org/2000/svg" viewBox="0 0 255.91 70">
  <defs>
    <style>
      .cls-1 {
        fill: #fff;
      }
    </style>
  </defs>
  <g id="Layer_1-2" data-name="Layer 1">
    <g>
      <g>
        <path class="cls-1" d="M99.54,61.46l-3.52,5.58h-.94V15.23c0-5.06-1.29-5.92-3.43-6.86v-1.2l11.32-4.98.86.69v25.73c4.29-2.75,9.35-5.06,14.24-5.06,12.18,0,19.56,10.04,19.56,20.67,0,13.12-9.01,23.59-23.25,23.59-6.18,0-11.67-2.75-14.84-6.35ZM117.72,66.01c9.09,0,11.49-7.46,11.49-15.27s-3.6-23.76-16.38-23.76c-3.17,0-6.18,1.2-9.01,3v21.96c0,6.69,7.38,14.07,13.9,14.07Z"/>
        <path class="cls-1" d="M142.86,65.84c2.83-.94,3.43-3.52,3.43-9.69V15.23c0-5.06-1.29-5.92-3.43-6.86v-1.2l11.32-4.98.86.69v53.27c0,6.18.6,8.75,3.43,9.69v1.2h-15.61v-1.2Z"/>
        <path class="cls-1" d="M163.79,65.84c2.83-.94,3.43-3.52,3.43-9.69v-19.73c0-5.06-1.29-5.92-3.43-6.86v-1.2l11.32-4.98.86.69v32.08c0,6.18.6,8.75,3.43,9.69v1.2h-15.61v-1.2ZM165.24,14.63c0-3.35,2.57-5.92,5.83-5.92,3.43,0,5.83,2.57,5.83,5.92s-2.57,5.83-5.83,5.83-5.83-2.57-5.83-5.83Z"/>
        <path class="cls-1" d="M185.49,63.69l-.86-11.24.86-.17c3.69,8.24,9.87,13.98,17.5,14.07,5.32.09,8.75-3.43,8.75-7.38,0-5.49-4.38-7.63-11.84-9.95-9.01-2.75-14.58-5.23-14.58-12.95,0-6.52,5.06-12.52,16.73-12.52,4.89,0,10.12.94,13.04,2.14l.43,9.44-1.03.17c-2.92-6.09-8.23-10.55-14.5-10.55-5.4,0-8.92,2.83-8.92,6.52,0,4.8,4.29,6.86,12.01,9.44,6.86,2.32,14.41,4.37,14.41,13.12,0,6.52-4.12,13.9-16.56,13.9-6.26,0-12.18-1.89-15.44-4.03Z"/>
        <path class="cls-1" d="M223.92,63.69l-.86-11.24.86-.17c3.69,8.24,9.87,13.98,17.5,14.07,5.32.09,8.75-3.43,8.75-7.38,0-5.49-4.38-7.63-11.84-9.95-9.01-2.75-14.58-5.23-14.58-12.95,0-6.52,5.06-12.52,16.73-12.52,4.89,0,10.12.94,13.04,2.14l.43,9.44-1.03.17c-2.92-6.09-8.23-10.55-14.5-10.55-5.4,0-8.92,2.83-8.92,6.52,0,4.8,4.29,6.86,12.01,9.44,6.86,2.32,14.41,4.37,14.41,13.12,0,6.52-4.12,13.9-16.56,13.9-6.26,0-12.18-1.89-15.44-4.03Z"/>
      </g>
      <g>
        <path class="cls-1" d="M17.5,0H0v19.59h.13c.45,3.76,2.11,7.4,4.99,10.28,6.84,6.84,17.92,6.84,24.75,0,3.42-3.42,5.13-7.9,5.13-12.38s-1.71-8.96-5.13-12.38C26.46,1.71,21.98,0,17.5,0Z"/>
        <path class="cls-1" d="M5.12,40.13c-2.88,2.88-4.54,6.52-4.99,10.28h-.13v19.59h17.5c4.48,0,8.96-1.71,12.37-5.12,3.42-3.42,5.13-7.9,5.13-12.38s-1.71-8.96-5.13-12.38c-6.83-6.83-17.91-6.83-24.75,0Z"/>
        <path class="cls-1" d="M52.5,35c4.48,0,8.95-1.71,12.37-5.12,6.84-6.84,6.84-17.92,0-24.75-2.89-2.89-6.53-4.55-10.29-5V0h-19.59v17.5h0c0,4.48,1.71,8.96,5.13,12.38,3.41,3.41,7.89,5.12,12.37,5.12-4.48,0-8.96,1.71-12.37,5.12-3.42,3.42-5.13,7.9-5.13,12.38h0v17.5h17.5s0,0,0,0h2.09v-.13c3.76-.45,7.4-2.11,10.29-5,6.83-6.83,6.83-17.91,0-24.75-3.41-3.41-7.89-5.12-12.37-5.12Z"/>
      </g>
    </g>
  </g>
</svg>