<svg xmlns="http://www.w3.org/2000/svg" viewBox="-10 -10 120 120">
  <g fill="#8DA3D4">
    <path d="M25,0H0v27.99h.19c.64,5.37,3.01,10.57,7.13,14.69,9.77,9.77,25.6,9.77,35.36.01,4.88-4.88,7.33-11.28,7.33-17.68s-2.44-12.8-7.33-17.68C37.8,2.44,31.4,0,25,0Z"/>
    <path d="M7.32,57.33c-4.12,4.12-6.49,9.32-7.13,14.69h-.19v27.99h25c6.4,0,12.8-2.44,17.67-7.32,4.88-4.88,7.33-11.28,7.33-17.68s-2.44-12.8-7.33-17.68c-9.76-9.76-25.59-9.76-35.36.01Z"/>
    <path d="M75,50c6.4,0,12.79-2.44,17.67-7.32,9.77-9.77,9.77-25.6.01-35.36-4.12-4.12-9.33-6.5-14.7-7.14V0h-27.99v25h0c0,6.4,2.44,12.8,7.33,17.68,4.88,4.88,11.27,7.32,17.67,7.32-6.4,0-12.79,2.44-17.67,7.32-4.88,4.88-7.33,11.28-7.33,17.68h0v25h25s0,0,0,0h2.98v-.19c5.37-.64,10.58-3.02,14.7-7.14,9.76-9.76,9.76-25.59-.01-35.36-4.88-4.88-11.27-7.32-17.67-7.32Z"/>
  </g>
</svg>
